<?xml version="1.0" encoding="UTF-8" standalone="no"?>
<!DOCTYPE svg PUBLIC "-//W3C//DTD SVG 1.1//EN" "http://www.w3.org/Graphics/SVG/1.1/DTD/svg11.dtd">
<svg width="100%" height="100%" viewBox="0 0 135 124" version="1.1" xmlns="http://www.w3.org/2000/svg" xmlns:xlink="http://www.w3.org/1999/xlink" xml:space="preserve" xmlns:serif="http://www.serif.com/" style="fill-rule:evenodd;clip-rule:evenodd;stroke-linejoin:round;stroke-miterlimit:2;">
    <g transform="matrix(1,0,0,1,-145.448,0)">
        <g id="Artboard2" transform="matrix(1.93804,0,0,1.93804,121.923,-123.897)">
            <rect x="12.138" y="63.929" width="69.636" height="63.594" style="fill:none;"/>
            <g transform="matrix(0.777044,0,0,0.777044,-53.9669,34.0677)">
                <g transform="matrix(-0.0331511,0.99945,-0.99945,-0.0331511,284.976,-47.1751)">
                    <path d="M131.606,117.594C113.259,117.594 98.385,132.467 98.385,150.815C98.385,169.15 113.271,184.035 131.606,184.035C149.953,184.035 164.827,169.162 164.827,150.815L160.84,150.815C160.84,166.96 147.752,180.049 131.606,180.049C115.471,180.049 102.372,166.949 102.372,150.815C102.372,134.669 115.46,121.58 131.606,121.58L131.606,117.594Z" style="fill:white;"/>
                </g>
                <g transform="matrix(1.59595e-16,-1,1,1.59595e-16,-20.9335,210.965)">
                    <path d="M98.89,156.583C101.241,169.92 111.453,180.494 124.699,183.31L125.528,179.41C113.871,176.932 104.885,167.627 102.816,155.891L98.89,156.583Z" style="fill:rgb(218,65,103);"/>
                </g>
                <g transform="matrix(0.847249,0,0,0.847249,-55.6459,-25.6623)">
                    <g transform="matrix(50,0,0,50,199.326,141.445)">
                        <path d="M0.529,-0L0.394,-0.195L0.245,-0.195L0.245,-0L0.083,-0L0.083,-0.7L0.386,-0.7C0.448,-0.7 0.502,-0.69 0.548,-0.669C0.593,-0.648 0.628,-0.619 0.653,-0.581C0.678,-0.543 0.69,-0.498 0.69,-0.446C0.69,-0.394 0.678,-0.349 0.653,-0.312C0.627,-0.274 0.592,-0.245 0.546,-0.225L0.703,-0L0.529,-0ZM0.526,-0.446C0.526,-0.485 0.513,-0.516 0.488,-0.537C0.463,-0.558 0.426,-0.568 0.377,-0.568L0.245,-0.568L0.245,-0.324L0.377,-0.324C0.426,-0.324 0.463,-0.335 0.488,-0.356C0.513,-0.377 0.526,-0.407 0.526,-0.446Z" style="fill:rgb(218,65,103);fill-rule:nonzero;"/>
                    </g>
                </g>
            </g>
        </g>
    </g>
</svg>
